PathFileType	4	(X/Y/Z)	 s10c0303.trc
DataRate	CameraRate	NumFrames	NumMarkers	Units	OrigDataRate	OrigDataStartFrame	OrigNumFrames
200	200	4	50	mm	200	251	2000
Frame#	Time	racr			lacr			c7			jug			rlel			rdr			llel			ldr			s2			lic			ric			lasi			rasi			rpsi			lpsi			rgt			lgt			rth1			rth2			rth3			rth4			rlfc			rmfc			rsh1			rsh2			rsh3			rsh4			rlmal			rmmal			rcal			rtoe			rmt5			lth1			lth2			lth4			lth3			llfc			lmfc			llmal			lmmal			lcal			lmt5			lsh1			lsh2			lsh3			lsh4			ltoe			SBIKE			LBIKE			RBIKE			
		X1	Y1	Z1	X2	Y2	Z2	X3	Y3	Z3	X4	Y4	Z4	X5	Y5	Z5	X6	Y6	Z6	X7	Y7	Z7	X8	Y8	Z8	X9	Y9	Z9	X10	Y10	Z10	X11	Y11	Z11	X12	Y12	Z12	X13	Y13	Z13	X14	Y14	Z14	X15	Y15	Z15	X16	Y16	Z16	X17	Y17	Z17	X18	Y18	Z18	X19	Y19	Z19	X20	Y20	Z20	X21	Y21	Z21	X22	Y22	Z22	X23	Y23	Z23	X24	Y24	Z24	X25	Y25	Z25	X26	Y26	Z26	X27	Y27	Z27	X28	Y28	Z28	X29	Y29	Z29	X30	Y30	Z30	X31	Y31	Z31	X32	Y32	Z32	X33	Y33	Z33	X34	Y34	Z34	X35	Y35	Z35	X36	Y36	Z36	X37	Y37	Z37	X38	Y38	Z38	X39	Y39	Z39	X40	Y40	Z40	X41	Y41	Z41	X42	Y42	Z42	X43	Y43	Z43	X44	Y44	Z44	X45	Y45	Z45	X46	Y46	Z46	X47	Y47	Z47	X48	Y48	Z48	X49	Y49	Z49	X50	Y50	Z50	
251	1.2550	433.080089	1284.974510	94.872512	588.654618	1308.690908	-189.135967	492.586457	1346.389824	-68.380981	483.564615	1202.040294	-70.563873	437.871825	1008.366534	58.510749	636.466928	901.322678	4.475990	600.742457	1083.808148	-365.494747	674.539949	877.924643	-374.424235	-17.656271	1168.101488	-211.525542	168.321690	1162.649826	-342.786529	147.689341	1150.491817	-61.705638	164.198225	1080.504886	-317.675467	150.103341	1071.379330	-67.034092	27.830858	1217.697877	-153.883887	49.341470	1230.224354	-265.678447	40.204893	1066.763170	-18.369006	46.439451	1050.666752	-402.375014	121.548474	938.848212	4.365911	195.946592	891.764683	-11.298899	233.768745	815.865816	-22.116673	221.844964	918.413685	-15.698898	312.306412	736.835528	-41.408186	300.959756	728.359085	-155.882111	269.418993	628.632513	-12.053684	276.895904	541.266906	-26.845559	241.202848	462.531064	-31.705678	305.785652	539.971372	-53.035248	216.201134	363.233666	-49.334556	239.662053	380.406303	-132.281836	165.853949	337.759273	-98.939240	408.844882	328.523501	-77.435639	324.597811	296.741516	-19.392203	128.579298	949.118765	-412.766322	201.215003	904.650121	-394.674350	224.198149	929.047567	-379.950970	244.789008	827.841561	-392.246459	302.337577	736.423189	-378.323626	290.943178	719.696245	-258.576803	6.454336	483.100561	-384.914411	24.486030	475.149617	-304.307340	-47.777325	496.014517	-335.222505	32.429417	336.422273	-395.292195	197.085853	668.027744	-414.392137	156.940126	591.035691	-400.192526	80.350237	544.417033	-397.035607	178.764666	573.945211	-373.568180	104.150914	300.822300	-343.642101	-203.222512	831.485686	-223.820905	-78.150806	81.965076	-423.666825	-102.557701	80.578365	-24.406643	
252	1.2600	434.137936	1284.560111	96.344813	590.665702	1308.745349	-187.992016	494.444340	1346.606654	-67.140334	485.035689	1202.280786	-69.766042	437.884955	1008.064357	58.522027	636.548932	901.265891	4.366898	601.890113	1083.942966	-364.690941	674.697817	877.891352	-374.261798	-15.648166	1169.039283	-210.627599	170.140940	1163.823749	-342.149360	149.742885	1151.079165	-61.022694	165.977547	1081.557246	-317.217210	152.351700	1072.126594	-66.911453	29.806836	1218.471662	-152.894812	51.151930	1231.234791	-264.759871	42.682379	1066.927714	-17.963210	48.461719	1051.605670	-401.929035	123.779908	938.855984	4.615280	197.714502	891.118767	-11.373734	234.828785	814.822515	-22.340864	223.731971	917.509637	-16.037167	312.466267	735.299981	-41.873224	300.515073	726.759857	-156.275792	269.592125	627.234037	-12.322894	277.099151	539.792041	-27.052225	241.427681	461.094037	-31.739243	305.904270	538.634467	-53.285538	216.554423	361.876964	-49.273012	240.188201	378.752631	-132.240030	166.089629	336.861051	-98.889431	409.142584	325.912167	-77.085105	324.598553	294.547094	-19.405115	130.823886	950.099072	-412.208665	203.495378	905.687025	-394.292744	226.317114	929.735280	-378.893666	246.870844	828.662127	-391.728169	304.108304	737.627267	-377.978844	292.122902	720.105231	-258.309429	6.810763	485.429769	-384.873329	25.174814	477.223023	-304.397789	-47.567008	498.210201	-335.174679	32.778931	338.739283	-395.236919	198.448068	669.348218	-414.135581	157.863451	592.369682	-399.825985	81.245147	546.538503	-397.077527	179.614551	575.376573	-373.404013	104.485316	303.278675	-343.570819	-203.223409	831.473440	-223.805906	-78.138982	81.966760	-423.670844	-102.564325	80.586657	-24.395419	
253	1.2650	435.279864	1283.955494	97.850675	592.555191	1308.776860	-186.943269	496.302188	1346.901988	-65.786237	486.530261	1202.437950	-68.909765	437.857693	1007.638640	58.572068	636.631759	901.140233	4.262234	603.014962	1084.072331	-363.962965	674.839407	877.873038	-374.093778	-13.831144	1169.629177	-209.696884	174.362666	1165.992433	-343.326531	151.811843	1151.484632	-60.236627	167.800448	1082.711656	-316.706247	154.525210	1072.564833	-66.588819	31.677913	1219.025863	-151.926222	53.048989	1232.182729	-263.990053	45.226830	1067.208735	-17.437835	50.343332	1052.724726	-401.430923	126.092512	938.927960	5.025774	199.433938	890.252690	-11.422662	235.777258	813.742077	-22.565030	225.619468	916.465076	-16.629116	312.529521	733.762314	-42.325089	299.929457	724.992331	-156.526790	269.637076	625.693083	-12.631179	277.238876	538.309872	-27.264118	241.683311	459.555167	-31.831711	305.985863	537.078417	-53.519414	216.937396	360.381815	-49.239054	240.500354	377.024691	-132.270973	166.379869	335.673773	-98.860073	409.413184	323.394287	-76.647957	324.542923	292.311311	-19.439988	133.039729	951.184191	-411.725798	205.644190	906.774008	-393.718916	228.405346	930.601103	-378.154491	249.090432	829.639608	-391.259768	305.805352	738.530446	-377.480044	293.456245	720.678246	-258.023854	7.186209	487.705339	-384.830440	24.419825	480.008005	-304.450260	-47.310590	500.477164	-335.113571	33.144640	341.053794	-395.135745	199.905267	670.583440	-413.938966	158.953010	593.770871	-399.448611	82.008547	548.551838	-397.143520	180.538472	576.745518	-373.027711	104.781869	305.530875	-343.454363	-203.355535	831.271166	-223.687835	-78.142752	81.967657	-423.662380	-102.566241	80.584698	-24.409505	
254	1.2700	436.574649	1283.466169	99.233806	594.398747	1308.851296	-185.910913	498.150439	1347.180474	-64.565272	488.131583	1202.625757	-68.036103	437.802765	1007.177211	58.631425	636.562343	900.760581	3.997337	604.060592	1084.190318	-363.296611	674.971654	877.808957	-373.877368	-11.800956	1170.534085	-208.775076	176.083194	1167.162656	-342.598047	153.719047	1151.990333	-59.702360	169.648556	1083.843035	-316.201542	156.694222	1072.872064	-66.099296	33.715868	1219.706005	-150.992341	54.862529	1233.257745	-263.101701	47.671984	1067.317120	-17.015713	52.363265	1053.854079	-401.055032	128.259849	938.838063	5.195161	201.092331	889.381246	-11.506136	236.716982	812.665067	-22.843359	227.536139	915.529443	-16.781048	312.617531	731.992190	-42.885666	299.350558	723.291703	-157.024112	269.671735	624.119430	-12.939610	277.314437	536.802206	-27.519747	241.908247	457.896767	-31.931731	306.088458	535.591028	-53.853364	217.365541	358.815071	-49.302095	240.717679	375.345299	-132.250528	166.628708	334.763826	-98.840099	409.601519	320.743289	-76.538064	324.411648	290.037532	-19.497933	135.339420	952.349376	-411.284017	207.839545	907.778394	-393.170445	230.607102	931.656106	-377.452142	251.207078	830.828248	-390.863209	307.580554	739.713110	-377.116794	295.032071	721.375284	-257.718063	7.600664	489.973257	-384.810315	24.683512	482.329125	-304.434442	-47.013975	502.780593	-335.133489	33.563271	343.410674	-395.081498	201.465462	671.743935	-413.696706	159.995901	595.114404	-399.158661	82.845606	550.449027	-397.025180	181.425701	578.099592	-372.772543	105.218796	307.951513	-343.442871	-203.361395	831.268531	-223.701709	-78.137592	81.959517	-423.668960	-102.564314	80.570039	-24.406402	
